<svg width="768" height="515" viewBox="0 0 768 515" fill="none" xmlns="http://www.w3.org/2000/svg">
<path d="M77 0H329.549V179.223C329.549 187.109 330.634 193.714 332.804 199.038C334.975 204.361 338.23 208.699 342.571 212.05C347.222 215.205 352.803 217.571 359.315 219.148C365.826 220.529 373.578 221.219 382.57 221.219C393.732 221.219 403.499 220.134 411.871 217.965C420.243 215.599 428.77 211.558 437.451 205.84V0H690V293.085H467.218L444.893 250.498C416.677 268.045 386.136 280.565 353.269 288.057C320.402 295.352 286.915 299 252.807 299C196.685 299 153.276 289.438 122.58 270.313C92.1932 250.99 77 221.317 77 181.293V0Z" fill="black"/>
<path d="M0 45C0 20.1472 20.1472 0 45 0H166C215.706 0 256 40.2944 256 90V515H90C40.2944 515 0 474.706 0 425V45Z" fill="black"/>
<path d="M512 90C512 40.2944 552.294 0 602 0H723C747.853 0 768 20.1472 768 45V425C768 474.706 727.706 515 678 515H512V90Z" fill="black"/>
</svg>
